<svg version="1.1" viewBox="0.0 0.0 960.0 720.0" fill="none" stroke="none" stroke-linecap="square" stroke-miterlimit="10" xmlns:xlink="http://www.w3.org/1999/xlink" xmlns="http://www.w3.org/2000/svg"><clipPath id="p.0"><path d="m0 0l960.0 0l0 720.0l-960.0 0l0 -720.0z" clip-rule="nonzero"/></clipPath><g clip-path="url(#p.0)"><path fill="#000000" fill-opacity="0.0" d="m0 0l960.0 0l0 720.0l-960.0 0z" fill-rule="evenodd"/><path fill="#cfe2f3" d="m274.04987 405.8189l34.897644 0l0 34.897614l-34.897644 0z" fill-rule="evenodd"/><path stroke="#000000" stroke-width="1.0" stroke-linejoin="round" stroke-linecap="butt" d="m274.04987 405.8189l34.897644 0l0 34.897614l-34.897644 0z" fill-rule="evenodd"/><path fill="#cfe2f3" d="m175.4147 440.44095l0 0c0 -3.6621094E-4 2.746582E-4 -6.4086914E-4 6.4086914E-4 -6.4086914E-4l76.78676 6.4086914E-4c1.6784668E-4 0 3.3569336E-4 6.1035156E-5 4.4250488E-4 1.8310547E-4c1.2207031E-4 1.2207031E-4 1.9836426E-4 2.746582E-4 1.9836426E-4 4.5776367E-4l-6.4086914E-4 69.73163c0 3.6621094E-4 -2.89917E-4 6.4086914E-4 -6.4086914E-4 6.4086914E-4l-76.78676 -6.4086914E-4l0 0c-3.6621094E-4 0 -6.4086914E-4 -2.746582E-4 -6.4086914E-4 -6.4086914E-4z" fill-rule="evenodd"/><path stroke="#000000" stroke-width="1.0" stroke-linejoin="round" stroke-linecap="butt" d="m175.4147 440.44095l0 0c0 -3.6621094E-4 2.746582E-4 -6.4086914E-4 6.4086914E-4 -6.4086914E-4l76.78676 6.4086914E-4c1.6784668E-4 0 3.3569336E-4 6.1035156E-5 4.4250488E-4 1.8310547E-4c1.2207031E-4 1.2207031E-4 1.9836426E-4 2.746582E-4 1.9836426E-4 4.5776367E-4l-6.4086914E-4 69.73163c0 3.6621094E-4 -2.89917E-4 6.4086914E-4 -6.4086914E-4 6.4086914E-4l-76.78676 -6.4086914E-4l0 0c-3.6621094E-4 0 -6.4086914E-4 -2.746582E-4 -6.4086914E-4 -6.4086914E-4z" fill-rule="evenodd"/><path fill="#cfe2f3" d="m75.93964 497.20996l0 0c0 -2.4414062E-4 1.9836426E-4 -4.272461E-4 4.4250488E-4 -4.272461E-4l53.227905 4.272461E-4c1.0681152E-4 0 2.2888184E-4 6.1035156E-5 3.0517578E-4 1.5258789E-4c9.1552734E-5 6.1035156E-5 1.373291E-4 1.8310547E-4 1.373291E-4 3.0517578E-4l-4.4250488E-4 52.692474c0 2.4414062E-4 -1.9836426E-4 4.272461E-4 -4.4250488E-4 4.272461E-4l-53.227905 -4.272461E-4l0 0c-2.5177002E-4 0 -4.5013428E-4 -1.8310547E-4 -4.5013428E-4 -4.272461E-4z" fill-rule="evenodd"/><path stroke="#000000" stroke-width="1.0" stroke-linejoin="round" stroke-linecap="butt" d="m75.93964 497.20996l0 0c0 -2.4414062E-4 1.9836426E-4 -4.272461E-4 4.4250488E-4 -4.272461E-4l53.227905 4.272461E-4c1.0681152E-4 0 2.2888184E-4 6.1035156E-5 3.0517578E-4 1.5258789E-4c9.1552734E-5 6.1035156E-5 1.373291E-4 1.8310547E-4 1.373291E-4 3.0517578E-4l-4.4250488E-4 52.692474c0 2.4414062E-4 -1.9836426E-4 4.272461E-4 -4.4250488E-4 4.272461E-4l-53.227905 -4.272461E-4l0 0c-2.5177002E-4 0 -4.5013428E-4 -1.8310547E-4 -4.5013428E-4 -4.272461E-4z" fill-rule="evenodd"/><path fill="#cfe2f3" d="m317.68765 329.01837l76.787415 0l0 76.787415l-76.787415 0z" fill-rule="evenodd"/><path stroke="#000000" stroke-width="1.0" stroke-linejoin="round" stroke-linecap="butt" d="m317.68765 329.01837l76.787415 0l0 76.787415l-76.787415 0z" fill-rule="evenodd"/><path fill="#cfe2f3" d="m429.39633 291.66403l27.149597 0l0 26.299225l-27.149597 0z" fill-rule="evenodd"/><path stroke="#000000" stroke-width="1.0" stroke-linejoin="round" stroke-linecap="butt" d="m429.39633 291.66403l27.149597 0l0 26.299225l-27.149597 0z" fill-rule="evenodd"/><path fill="#cfe2f3" d="m412.81366 333.0735l91.08661 0l0 91.08661l-91.08661 0z" fill-rule="evenodd"/><path stroke="#000000" stroke-width="1.0" stroke-linejoin="round" stroke-linecap="butt" d="m412.81366 333.0735l91.08661 0l0 91.08661l-91.08661 0z" fill-rule="evenodd"/><path fill="#cfe2f3" d="m503.57742 262.69028l59.338593 0l0 59.338593l-59.338593 0z" fill-rule="evenodd"/><path stroke="#000000" stroke-width="1.0" stroke-linejoin="round" stroke-linecap="butt" d="m503.57742 262.69028l59.338593 0l0 59.338593l-59.338593 0z" fill-rule="evenodd"/><path fill="#cfe2f3" d="m558.55646 178.90552l59.338562 0l0 59.338577l-59.338562 0z" fill-rule="evenodd"/><path stroke="#000000" stroke-width="1.0" stroke-linejoin="round" stroke-linecap="butt" d="m558.55646 178.90552l59.338562 0l0 59.338577l-59.338562 0z" fill-rule="evenodd"/><path fill="#cfe2f3" d="m631.0079 141.3937l34.897644 0l0 34.89763l-34.897644 0z" fill-rule="evenodd"/><path stroke="#000000" stroke-width="1.0" stroke-linejoin="round" stroke-linecap="butt" d="m631.0079 141.3937l34.897644 0l0 34.89763l-34.897644 0z" fill-rule="evenodd"/><path fill="#ff0000" d="m117.8189 501.0866l0 0c0 -5.540222 4.491249 -10.031494 10.031494 -10.031494l0 0c2.6605148 0 5.2120743 1.0568848 7.0933304 2.9381714c1.8812714 1.8812561 2.9381714 4.4328003 2.9381714 7.0933228l0 0c0 5.5402527 -4.4912567 10.031494 -10.031502 10.031494l0 0c-5.540245 0 -10.031494 -4.4912415 -10.031494 -10.031494z" fill-rule="evenodd"/><path stroke="#000000" stroke-width="1.0" stroke-linejoin="round" stroke-linecap="butt" d="m117.8189 501.0866l0 0c0 -5.540222 4.491249 -10.031494 10.031494 -10.031494l0 0c2.6605148 0 5.2120743 1.0568848 7.0933304 2.9381714c1.8812714 1.8812561 2.9381714 4.4328003 2.9381714 7.0933228l0 0c0 5.5402527 -4.4912567 10.031494 -10.031502 10.031494l0 0c-5.540245 0 -10.031494 -4.4912415 -10.031494 -10.031494z" fill-rule="evenodd"/><path fill="#ff0000" d="m262.09973 405.0866l0 0c0 -5.540222 4.491272 -10.031494 10.031494 -10.031494l0 0c2.6605225 0 5.2120667 1.0568848 7.0933533 2.9381714c1.8812561 1.8812561 2.9381409 4.4328003 2.9381409 7.0933228l0 0c0 5.5402527 -4.4912415 10.031494 -10.031494 10.031494l0 0c-5.540222 0 -10.031494 -4.4912415 -10.031494 -10.031494z" fill-rule="evenodd"/><path stroke="#000000" stroke-width="1.0" stroke-linejoin="round" stroke-linecap="butt" d="m262.09973 405.0866l0 0c0 -5.540222 4.491272 -10.031494 10.031494 -10.031494l0 0c2.6605225 0 5.2120667 1.0568848 7.0933533 2.9381714c1.8812561 1.8812561 2.9381409 4.4328003 2.9381409 7.0933228l0 0c0 5.5402527 -4.4912415 10.031494 -10.031494 10.031494l0 0c-5.540222 0 -10.031494 -4.4912415 -10.031494 -10.031494z" fill-rule="evenodd"/><path fill="#ff0000" d="m306.03674 327.99475l0 0c0 -5.5402527 4.4912415 -10.031494 10.031494 -10.031494l0 0c2.6605225 0 5.2120667 1.0568848 7.0933533 2.9381409c1.8812561 1.8812866 2.9381409 4.432831 2.9381409 7.0933533l0 0c0 5.5402527 -4.4912415 10.031494 -10.031494 10.031494l0 0c-5.5402527 0 -10.031494 -4.4912415 -10.031494 -10.031494z" fill-rule="evenodd"/><path stroke="#000000" stroke-width="1.0" stroke-linejoin="round" stroke-linecap="butt" d="m306.03674 327.99475l0 0c0 -5.5402527 4.4912415 -10.031494 10.031494 -10.031494l0 0c2.6605225 0 5.2120667 1.0568848 7.0933533 2.9381409c1.8812561 1.8812866 2.9381409 4.432831 2.9381409 7.0933533l0 0c0 5.5402527 -4.4912415 10.031494 -10.031494 10.031494l0 0c-5.5402527 0 -10.031494 -4.4912415 -10.031494 -10.031494z" fill-rule="evenodd"/><path fill="#ff0000" d="m169.30971 442.0315l0 0c0 -5.5402527 4.4912567 -10.031494 10.031494 -10.031494l0 0c2.6605225 0 5.2120667 1.0568848 7.093338 2.9381714c1.8812714 1.8812561 2.9381561 4.4328003 2.9381561 7.0933228l0 0c0 5.5402527 -4.4912415 10.031494 -10.031494 10.031494l0 0c-5.5402374 0 -10.031494 -4.4912415 -10.031494 -10.031494z" fill-rule="evenodd"/><path stroke="#000000" stroke-width="1.0" stroke-linejoin="round" stroke-linecap="butt" d="m169.30971 442.0315l0 0c0 -5.5402527 4.4912567 -10.031494 10.031494 -10.031494l0 0c2.6605225 0 5.2120667 1.0568848 7.093338 2.9381714c1.8812714 1.8812561 2.9381561 4.4328003 2.9381561 7.0933228l0 0c0 5.5402527 -4.4912415 10.031494 -10.031494 10.031494l0 0c-5.5402374 0 -10.031494 -4.4912415 -10.031494 -10.031494z" fill-rule="evenodd"/><path fill="#ff0000" d="m402.03674 421.9685l0 0c0 -5.5402527 4.4912415 -10.031494 10.031494 -10.031494l0 0c2.6605225 0 5.2120667 1.0568848 7.0933533 2.9381409c1.8812561 1.8812866 2.9381409 4.432831 2.9381409 7.0933533l0 0c0 5.5402527 -4.4912415 10.031494 -10.031494 10.031494l0 0c-5.5402527 0 -10.031494 -4.4912415 -10.031494 -10.031494z" fill-rule="evenodd"/><path stroke="#000000" stroke-width="1.0" stroke-linejoin="round" stroke-linecap="butt" d="m402.03674 421.9685l0 0c0 -5.5402527 4.4912415 -10.031494 10.031494 -10.031494l0 0c2.6605225 0 5.2120667 1.0568848 7.0933533 2.9381409c1.8812561 1.8812866 2.9381409 4.432831 2.9381409 7.0933533l0 0c0 5.5402527 -4.4912415 10.031494 -10.031494 10.031494l0 0c-5.5402527 0 -10.031494 -4.4912415 -10.031494 -10.031494z" fill-rule="evenodd"/><path fill="#ff0000" d="m420.23096 288.86877l0 0c0 -5.5402527 4.491272 -10.031494 10.031525 -10.031494l0 0c2.660492 0 5.2120667 1.0568848 7.0933228 2.9381409c1.8812866 1.8812866 2.9381714 4.432831 2.9381714 7.0933533l0 0c0 5.540222 -4.491272 10.031494 -10.031494 10.031494l0 0c-5.5402527 0 -10.031525 -4.491272 -10.031525 -10.031494z" fill-rule="evenodd"/><path stroke="#000000" stroke-width="1.0" stroke-linejoin="round" stroke-linecap="butt" d="m420.23096 288.86877l0 0c0 -5.5402527 4.491272 -10.031494 10.031525 -10.031494l0 0c2.660492 0 5.2120667 1.0568848 7.0933228 2.9381409c1.8812866 1.8812866 2.9381714 4.432831 2.9381714 7.0933533l0 0c0 5.540222 -4.491272 10.031494 -10.031494 10.031494l0 0c-5.5402527 0 -10.031525 -4.491272 -10.031525 -10.031494z" fill-rule="evenodd"/><path fill="#ff0000" d="m492.21783 323.042l0 0c0 -5.5402527 4.491272 -10.031494 10.031494 -10.031494l0 0c2.6605225 0 5.212097 1.0568848 7.0933533 2.9381714c1.8812561 1.8812561 2.9381409 4.4328003 2.9381409 7.0933228l0 0c0 5.5402527 -4.4912415 10.031494 -10.031494 10.031494l0 0c-5.540222 0 -10.031494 -4.4912415 -10.031494 -10.031494z" fill-rule="evenodd"/><path stroke="#000000" stroke-width="1.0" stroke-linejoin="round" stroke-linecap="butt" d="m492.21783 323.042l0 0c0 -5.5402527 4.491272 -10.031494 10.031494 -10.031494l0 0c2.6605225 0 5.212097 1.0568848 7.0933533 2.9381714c1.8812561 1.8812561 2.9381409 4.4328003 2.9381409 7.0933228l0 0c0 5.5402527 -4.4912415 10.031494 -10.031494 10.031494l0 0c-5.540222 0 -10.031494 -4.4912415 -10.031494 -10.031494z" fill-rule="evenodd"/><path fill="#ff0000" d="m656.2913 175.26772l0 0c0 -5.5402374 4.491272 -10.031494 10.031494 -10.031494l0 0c2.6605225 0 5.212097 1.0568848 7.093384 2.9381561c1.8812256 1.8812714 2.9381104 4.4328156 2.9381104 7.093338l0 0c0 5.5402374 -4.491211 10.031494 -10.031494 10.031494l0 0c-5.540222 0 -10.031494 -4.4912567 -10.031494 -10.031494z" fill-rule="evenodd"/><path stroke="#000000" stroke-width="1.0" stroke-linejoin="round" stroke-linecap="butt" d="m656.2913 175.26772l0 0c0 -5.5402374 4.491272 -10.031494 10.031494 -10.031494l0 0c2.6605225 0 5.212097 1.0568848 7.093384 2.9381561c1.8812256 1.8812714 2.9381104 4.4328156 2.9381104 7.093338l0 0c0 5.5402374 -4.491211 10.031494 -10.031494 10.031494l0 0c-5.540222 0 -10.031494 -4.4912567 -10.031494 -10.031494z" fill-rule="evenodd"/><path fill="#ff0000" d="m605.3832 237.81364l0 0c0 -5.5402374 4.491272 -10.031494 10.031494 -10.031494l0 0c2.6605225 0 5.212097 1.0568848 7.093384 2.9381561c1.8812256 1.8812714 2.9381104 4.432831 2.9381104 7.093338l0 0c0 5.5402527 -4.491211 10.031494 -10.031494 10.031494l0 0c-5.540222 0 -10.031494 -4.4912415 -10.031494 -10.031494z" fill-rule="evenodd"/><path stroke="#000000" stroke-width="1.0" stroke-linejoin="round" stroke-linecap="butt" d="m605.3832 237.81364l0 0c0 -5.5402374 4.491272 -10.031494 10.031494 -10.031494l0 0c2.6605225 0 5.212097 1.0568848 7.093384 2.9381561c1.8812256 1.8812714 2.9381104 4.432831 2.9381104 7.093338l0 0c0 5.5402527 -4.491211 10.031494 -10.031494 10.031494l0 0c-5.540222 0 -10.031494 -4.4912415 -10.031494 -10.031494z" fill-rule="evenodd"/><path fill="#000000" fill-opacity="0.0" d="m27.939632 626.61945l644.063 -492.2205" fill-rule="evenodd"/><path stroke="#0000ff" stroke-width="4.0" stroke-linejoin="round" stroke-linecap="butt" d="m27.939632 626.61945l644.063 -492.2205" fill-rule="evenodd"/><path fill="#000000" fill-opacity="0.0" d="m88.6168 120.43569l502.67715 0l0 50.078743l-502.67715 0z" fill-rule="evenodd"/><path fill="#000000" d="m99.5543 153.75569l0 -17.984375l3.671875 0l0 14.921875l9.09375 0l0 3.0625l-12.765625 0zm15.377686 0l0 -18.125l13.437492 0l0 3.0625l-9.781242 0l0 4.015625l9.109375 0l0 3.0625l-9.109375 0l0 4.921875l10.124992 0l0 3.0625l-13.781242 0zm33.237404 0l-3.984375 0l-1.578125 -4.125l-7.25 0l-1.484375 4.125l-3.890625 0l7.0625 -18.125l3.875 0l7.25 18.125zm-6.734375 -7.171875l-2.5 -6.734375l-2.453125 6.734375l4.953125 0zm7.759918 1.265625l3.5625 -0.34375q0.3125 1.796875 1.296875 2.640625q0.984375 0.84375 2.65625 0.84375q1.765625 0 2.65625 -0.75q0.90625 -0.75 0.90625 -1.75q0 -0.640625 -0.390625 -1.09375q-0.375 -0.453125 -1.3125 -0.78125q-0.640625 -0.234375 -2.921875 -0.796875q-2.953125 -0.734375 -4.140625 -1.796875q-1.65625 -1.5 -1.65625 -3.640625q0 -1.390625 0.78125 -2.59375q0.78125 -1.203125 2.25 -1.828125q1.484375 -0.640625 3.578125 -0.640625q3.40625 0 5.125 1.5q1.734375 1.484375 1.828125 3.984375l-3.65625 0.171875q-0.25 -1.40625 -1.015625 -2.015625q-0.765625 -0.609375 -2.3125 -0.609375q-1.609375 0 -2.5 0.65625q-0.578125 0.421875 -0.578125 1.125q0 0.640625 0.53125 1.09375q0.703125 0.578125 3.375 1.21875q2.671875 0.625 3.9375 1.296875q1.28125 0.671875 2.0 1.84375q0.734375 1.171875 0.734375 2.890625q0 1.5625 -0.875 2.921875q-0.859375 1.359375 -2.4375 2.03125q-1.578125 0.65625 -3.953125 0.65625q-3.4375 0 -5.28125 -1.59375q-1.828125 -1.59375 -2.1875 -4.640625zm21.893661 5.90625l0 -15.0625l-5.375 0l0 -3.0625l14.40625 0l0 3.0625l-5.375 0l0 15.0625l-3.65625 0zm17.508408 -5.90625l3.5625 -0.34375q0.3125 1.796875 1.296875 2.640625q0.984375 0.84375 2.65625 0.84375q1.765625 0 2.65625 -0.75q0.90625 -0.75 0.90625 -1.75q0 -0.640625 -0.390625 -1.09375q-0.375 -0.453125 -1.3125 -0.78125q-0.640625 -0.234375 -2.921875 -0.796875q-2.953125 -0.734375 -4.140625 -1.796875q-1.65625 -1.5 -1.65625 -3.640625q0 -1.390625 0.78125 -2.59375q0.78125 -1.203125 2.25 -1.828125q1.484375 -0.640625 3.578125 -0.640625q3.40625 0 5.125 1.5q1.734375 1.484375 1.828125 3.984375l-3.65625 0.171875q-0.25 -1.40625 -1.015625 -2.015625q-0.765625 -0.609375 -2.3125 -0.609375q-1.609375 0 -2.5 0.65625q-0.578125 0.421875 -0.578125 1.125q0 0.640625 0.53125 1.09375q0.703125 0.578125 3.375 1.21875q2.671875 0.625 3.9375 1.296875q1.28125 0.671875 2.0 1.84375q0.734375 1.171875 0.734375 2.890625q0 1.5625 -0.875 2.921875q-0.859375 1.359375 -2.4375 2.03125q-1.578125 0.65625 -3.953125 0.65625q-3.4375 0 -5.28125 -1.59375q-1.828125 -1.59375 -2.1875 -4.640625zm32.409286 3.609375q1.34375 0.96875 2.921875 1.53125l-1.34375 2.578125q-0.828125 -0.234375 -1.609375 -0.671875q-0.1875 -0.09375 -2.4375 -1.609375q-1.78125 0.78125 -3.953125 0.78125q-4.171875 0 -6.546875 -2.453125q-2.375 -2.46875 -2.375 -6.921875q0 -4.4375 2.375 -6.90625q2.375 -2.46875 6.453125 -2.46875q4.03125 0 6.390625 2.46875q2.359375 2.46875 2.359375 6.90625q0 2.34375 -0.65625 4.125q-0.484375 1.359375 -1.578125 2.640625zm-2.9375 -2.0625q0.703125 -0.828125 1.046875 -2.0q0.359375 -1.1875 0.359375 -2.703125q0 -3.140625 -1.390625 -4.6875q-1.390625 -1.5625 -3.625 -1.5625q-2.234375 0 -3.625 1.5625q-1.390625 1.5625 -1.390625 4.6875q0 3.171875 1.390625 4.75q1.390625 1.578125 3.515625 1.578125q0.796875 0 1.5 -0.265625q-1.109375 -0.71875 -2.265625 -1.125l1.03125 -2.09375q1.796875 0.609375 3.453125 1.859375zm8.013535 -13.765625l3.671875 0l0 9.8125q0 2.34375 0.125 3.03125q0.234375 1.109375 1.125 1.796875q0.890625 0.671875 2.421875 0.671875q1.546875 0 2.34375 -0.640625q0.796875 -0.640625 0.953125 -1.5625q0.15625 -0.9375 0.15625 -3.078125l0 -10.03125l3.671875 0l0 9.515625q0 3.265625 -0.296875 4.625q-0.296875 1.34375 -1.09375 2.265625q-0.796875 0.921875 -2.140625 1.484375q-1.328125 0.546875 -3.484375 0.546875q-2.59375 0 -3.9375 -0.59375q-1.34375 -0.609375 -2.125 -1.5625q-0.78125 -0.96875 -1.03125 -2.015625q-0.359375 -1.5625 -0.359375 -4.59375l0 -9.671875zm34.666183 18.125l-3.984375 0l-1.5781403 -4.125l-7.25 0l-1.484375 4.125l-3.890625 0l7.0625 -18.125l3.875 0l7.2500153 18.125zm-6.7343903 -7.171875l-2.5 -6.734375l-2.453125 6.734375l4.953125 0zm8.697433 7.171875l0 -18.125l7.703125 0q2.90625 0 4.21875 0.484375q1.3125 0.484375 2.109375 1.734375q0.796875 1.25 0.796875 2.859375q0 2.046875 -1.203125 3.375q-1.203125 1.328125 -3.59375 1.671875q1.1875 0.6875 1.953125 1.515625q0.78125 0.828125 2.09375 2.953125l2.21875 3.53125l-4.375 0l-2.65625 -3.9375q-1.40625 -2.125 -1.921875 -2.671875q-0.515625 -0.546875 -1.109375 -0.75q-0.578125 -0.203125 -1.828125 -0.203125l-0.75 0l0 7.5625l-3.65625 0zm3.65625 -10.46875l2.703125 0q2.640625 0 3.296875 -0.21875q0.65625 -0.21875 1.015625 -0.765625q0.375 -0.546875 0.375 -1.359375q0 -0.921875 -0.484375 -1.484375q-0.484375 -0.5625 -1.375 -0.703125q-0.453125 -0.0625 -2.671875 -0.0625l-2.859375 0l0 4.59375zm14.619293 10.46875l0 -18.125l13.4375 0l0 3.0625l-9.78125 0l0 4.015625l9.109375 0l0 3.0625l-9.109375 0l0 4.921875l10.125 0l0 3.0625l-13.78125 0zm15.971771 -5.90625l3.5625 -0.34375q0.3125 1.796875 1.296875 2.640625q0.984375 0.84375 2.65625 0.84375q1.765625 0 2.65625 -0.75q0.90625 -0.75 0.90625 -1.75q0 -0.640625 -0.390625 -1.09375q-0.375 -0.453125 -1.3125 -0.78125q-0.640625 -0.234375 -2.921875 -0.796875q-2.953125 -0.734375 -4.140625 -1.796875q-1.65625 -1.5 -1.65625 -3.640625q0 -1.390625 0.78125 -2.59375q0.78125 -1.203125 2.25 -1.828125q1.484375 -0.640625 3.578125 -0.640625q3.40625 0 5.125 1.5q1.734375 1.484375 1.828125 3.984375l-3.65625 0.171875q-0.25 -1.40625 -1.015625 -2.015625q-0.765625 -0.609375 -2.3125 -0.609375q-1.609375 0 -2.5 0.65625q-0.578125 0.421875 -0.578125 1.125q0 0.640625 0.53125 1.09375q0.703125 0.578125 3.375 1.21875q2.671875 0.625 3.9375 1.296875q1.28125 0.671875 2.0 1.84375q0.734375 1.171875 0.734375 2.890625q0 1.5625 -0.875 2.921875q-0.859375 1.359375 -2.4375 2.03125q-1.578125 0.65625 -3.953125 0.65625q-3.4375 0 -5.28125 -1.59375q-1.828125 -1.59375 -2.1875 -4.640625z" fill-rule="nonzero"/><path fill="#000000" fill-opacity="0.0" d="m553.32544 414.2047l502.67725 0l0 42.015747l-502.67725 0z" fill-rule="evenodd"/><path fill="#000000" d="m563.1692 436.82785l1.65625 -0.140625q0.125 1.0 0.546875 1.640625q0.4375 0.640625 1.34375 1.046875q0.921875 0.390625 2.0625 0.390625q1.0 0 1.78125 -0.296875q0.78125 -0.296875 1.15625 -0.8125q0.375 -0.53125 0.375 -1.15625q0 -0.625 -0.375 -1.09375q-0.359375 -0.46875 -1.1875 -0.796875q-0.546875 -0.203125 -2.390625 -0.640625q-1.828125 -0.453125 -2.5625 -0.84375q-0.96875 -0.5 -1.4375 -1.234375q-0.46875 -0.75 -0.46875 -1.671875q0 -1.0 0.578125 -1.875q0.578125 -0.890625 1.671875 -1.34375q1.109375 -0.453125 2.453125 -0.453125q1.484375 0 2.609375 0.484375q1.140625 0.46875 1.75 1.40625q0.609375 0.921875 0.65625 2.09375l-1.6875 0.125q-0.140625 -1.265625 -0.9375 -1.90625q-0.78125 -0.65625 -2.3125 -0.65625q-1.609375 0 -2.34375 0.59375q-0.734375 0.59375 -0.734375 1.421875q0 0.71875 0.53125 1.171875q0.5 0.46875 2.65625 0.96875q2.15625 0.484375 2.953125 0.84375q1.171875 0.53125 1.71875 1.359375q0.5625 0.828125 0.5625 1.90625q0 1.0625 -0.609375 2.015625q-0.609375 0.9375 -1.75 1.46875q-1.140625 0.515625 -2.578125 0.515625q-1.8125 0 -3.046875 -0.53125q-1.21875 -0.53125 -1.921875 -1.59375q-0.6875 -1.0625 -0.71875 -2.40625zm18.990479 8.0l0 -4.734375q-0.375 0.546875 -1.0625 0.90625q-0.6875 0.34375 -1.46875 0.34375q-1.71875 0 -2.96875 -1.375q-1.234375 -1.375 -1.234375 -3.765625q0 -1.46875 0.5 -2.625q0.515625 -1.15625 1.46875 -1.75q0.96875 -0.59375 2.109375 -0.59375q1.796875 0 2.828125 1.515625l0 -1.296875l1.46875 0l0 13.375l-1.640625 0zm-5.046875 -8.5625q0 1.859375 0.78125 2.796875q0.78125 0.9375 1.875 0.9375q1.046875 0 1.796875 -0.890625q0.765625 -0.890625 0.765625 -2.703125q0 -1.9375 -0.796875 -2.90625q-0.796875 -0.96875 -1.875 -0.96875q-1.0625 0 -1.8125 0.90625q-0.734375 0.90625 -0.734375 2.828125zm15.594482 4.859375l0 -1.421875q-1.125 1.640625 -3.0625 1.640625q-0.859375 0 -1.609375 -0.328125q-0.734375 -0.328125 -1.09375 -0.828125q-0.359375 -0.5 -0.5 -1.21875q-0.109375 -0.46875 -0.109375 -1.53125l0 -5.984375l1.640625 0l0 5.359375q0 1.28125 0.109375 1.734375q0.15625 0.640625 0.65625 1.015625q0.5 0.375 1.234375 0.375q0.734375 0 1.375 -0.375q0.65625 -0.390625 0.921875 -1.03125q0.265625 -0.65625 0.265625 -1.890625l0 -5.1875l1.640625 0l0 9.671875l-1.46875 0zm10.360046 -1.1875q-0.921875 0.765625 -1.765625 1.09375q-0.828125 0.3125 -1.796875 0.3125q-1.59375 0 -2.453125 -0.78125q-0.859375 -0.78125 -0.859375 -1.984375q0 -0.71875 0.328125 -1.296875q0.328125 -0.59375 0.84375 -0.9375q0.53125 -0.359375 1.1875 -0.546875q0.46875 -0.125 1.453125 -0.25q1.984375 -0.234375 2.921875 -0.5625q0.015625 -0.34375 0.015625 -0.421875q0 -1.0 -0.46875 -1.421875q-0.625 -0.546875 -1.875 -0.546875q-1.15625 0 -1.703125 0.40625q-0.546875 0.40625 -0.8125 1.421875l-1.609375 -0.21875q0.21875 -1.015625 0.71875 -1.640625q0.5 -0.640625 1.453125 -0.984375q0.953125 -0.34375 2.1875 -0.34375q1.25 0 2.015625 0.296875q0.78125 0.28125 1.140625 0.734375q0.375 0.4375 0.515625 1.109375q0.078125 0.421875 0.078125 1.515625l0 2.1875q0 2.28125 0.109375 2.890625q0.109375 0.59375 0.40625 1.15625l-1.703125 0q-0.265625 -0.515625 -0.328125 -1.1875zm-0.140625 -3.671875q-0.890625 0.375 -2.671875 0.625q-1.015625 0.140625 -1.4375 0.328125q-0.421875 0.1875 -0.65625 0.53125q-0.21875 0.34375 -0.21875 0.78125q0 0.65625 0.5 1.09375q0.5 0.4375 1.453125 0.4375q0.9375 0 1.671875 -0.40625q0.75 -0.421875 1.09375 -1.140625q0.265625 -0.5625 0.265625 -1.640625l0 -0.609375zm4.1882324 4.859375l0 -9.671875l1.46875 0l0 1.46875q0.5625 -1.03125 1.03125 -1.359375q0.484375 -0.328125 1.0625 -0.328125q0.828125 0 1.6875 0.53125l-0.5625 1.515625q-0.609375 -0.359375 -1.203125 -0.359375q-0.546875 0 -0.96875 0.328125q-0.421875 0.328125 -0.609375 0.890625q-0.28125 0.875 -0.28125 1.921875l0 5.0625l-1.625 0zm12.8533325 -3.109375l1.6875 0.203125q-0.40625 1.484375 -1.484375 2.3125q-1.078125 0.8125 -2.765625 0.8125q-2.125 0 -3.375 -1.296875q-1.234375 -1.3125 -1.234375 -3.671875q0 -2.453125 1.25 -3.796875q1.265625 -1.34375 3.265625 -1.34375q1.9375 0 3.15625 1.328125q1.234375 1.3125 1.234375 3.703125q0 0.15625 0 0.4375l-7.21875 0q0.09375 1.59375 0.90625 2.453125q0.8125 0.84375 2.015625 0.84375q0.90625 0 1.546875 -0.46875q0.640625 -0.484375 1.015625 -1.515625zm-5.390625 -2.65625l5.40625 0q-0.109375 -1.21875 -0.625 -1.828125q-0.78125 -0.953125 -2.03125 -0.953125q-1.125 0 -1.90625 0.765625q-0.765625 0.75 -0.84375 2.015625zm15.406921 5.765625l0 -1.21875q-0.90625 1.4375 -2.703125 1.4375q-1.15625 0 -2.125 -0.640625q-0.96875 -0.640625 -1.5 -1.78125q-0.53125 -1.140625 -0.53125 -2.625q0 -1.453125 0.484375 -2.625q0.484375 -1.1875 1.4375 -1.8125q0.96875 -0.625 2.171875 -0.625q0.875 0 1.546875 0.375q0.6875 0.359375 1.109375 0.953125l0 -4.796875l1.640625 0l0 13.359375l-1.53125 0zm-5.171875 -4.828125q0 1.859375 0.78125 2.78125q0.78125 0.921875 1.84375 0.921875q1.078125 0 1.828125 -0.875q0.75 -0.890625 0.75 -2.6875q0 -1.984375 -0.765625 -2.90625q-0.765625 -0.9375 -1.890625 -0.9375q-1.078125 0 -1.8125 0.890625q-0.734375 0.890625 -0.734375 2.8125zm21.090271 1.71875l1.6875 0.203125q-0.40625 1.484375 -1.484375 2.3125q-1.078125 0.8125 -2.765625 0.8125q-2.125 0 -3.375 -1.296875q-1.234375 -1.3125 -1.234375 -3.671875q0 -2.453125 1.25 -3.796875q1.265625 -1.34375 3.265625 -1.34375q1.9375 0 3.15625 1.328125q1.234375 1.3125 1.234375 3.703125q0 0.15625 0 0.4375l-7.21875 0q0.09375 1.59375 0.90625 2.453125q0.8125 0.84375 2.015625 0.84375q0.90625 0 1.546875 -0.46875q0.640625 -0.484375 1.015625 -1.515625zm-5.390625 -2.65625l5.40625 0q-0.109375 -1.21875 -0.625 -1.828125q-0.78125 -0.953125 -2.03125 -0.953125q-1.125 0 -1.90625 0.765625q-0.765625 0.75 -0.84375 2.015625zm9.125732 5.765625l0 -9.671875l1.46875 0l0 1.46875q0.5625 -1.03125 1.03125 -1.359375q0.484375 -0.328125 1.0625 -0.328125q0.828125 0 1.6875 0.53125l-0.5625 1.515625q-0.609375 -0.359375 -1.203125 -0.359375q-0.546875 0 -0.96875 0.328125q-0.421875 0.328125 -0.609375 0.890625q-0.28125 0.875 -0.28125 1.921875l0 5.0625l-1.625 0zm6.2127075 0l0 -9.671875l1.46875 0l0 1.46875q0.5625 -1.03125 1.03125 -1.359375q0.484375 -0.328125 1.0625 -0.328125q0.828125 0 1.6875 0.53125l-0.5625 1.515625q-0.609375 -0.359375 -1.203125 -0.359375q-0.546875 0 -0.96875 0.328125q-0.421875 0.328125 -0.609375 0.890625q-0.28125 0.875 -0.28125 1.921875l0 5.0625l-1.625 0zm5.6188965 -4.84375q0 -2.6875 1.484375 -3.96875q1.25 -1.078125 3.046875 -1.078125q2.0 0 3.265625 1.3125q1.265625 1.296875 1.265625 3.609375q0 1.859375 -0.5625 2.9375q-0.5625 1.0625 -1.640625 1.65625q-1.0625 0.59375 -2.328125 0.59375q-2.03125 0 -3.28125 -1.296875q-1.25 -1.3125 -1.25 -3.765625zm1.6875 0q0 1.859375 0.796875 2.796875q0.8125 0.921875 2.046875 0.921875q1.21875 0 2.03125 -0.921875q0.8125 -0.9375 0.8125 -2.84375q0 -1.796875 -0.8125 -2.71875q-0.8125 -0.921875 -2.03125 -0.921875q-1.234375 0 -2.046875 0.921875q-0.796875 0.90625 -0.796875 2.765625zm9.281982 4.84375l0 -9.671875l1.46875 0l0 1.46875q0.5625 -1.03125 1.03125 -1.359375q0.484375 -0.328125 1.0625 -0.328125q0.828125 0 1.6875 0.53125l-0.5625 1.515625q-0.609375 -0.359375 -1.203125 -0.359375q-0.546875 0 -0.96875 0.328125q-0.421875 0.328125 -0.609375 0.890625q-0.28125 0.875 -0.28125 1.921875l0 5.0625l-1.625 0z" fill-rule="nonzero"/><path fill="#000000" fill-opacity="0.0" d="m553.32544 435.2126l-41.88974 -25.039368" fill-rule="evenodd"/><path stroke="#000000" stroke-width="1.0" stroke-linejoin="round" stroke-linecap="butt" d="m553.32544 435.2126l-36.739685 -21.960938" fill-rule="evenodd"/><path fill="#000000" stroke="#000000" stroke-width="1.0" stroke-linecap="butt" d="m517.4332 411.8339l-4.742737 -0.910614l3.0478516 3.7461243z" fill-rule="evenodd"/><path fill="#000000" fill-opacity="0.0" d="m379.6509 221.67192l112.566925 0l0 42.01573l-112.566925 0z" fill-rule="evenodd"/><path fill="#000000" d="m390.04153 248.59192l0 -13.359375l2.65625 0l3.15625 9.453125q0.4375 1.328125 0.640625 1.984375q0.234375 -0.734375 0.703125 -2.140625l3.203125 -9.296875l2.375 0l0 13.359375l-1.703125 0l0 -11.171875l-3.875 11.171875l-1.59375 0l-3.859375 -11.375l0 11.375l-1.703125 0zm14.775177 -4.84375q0 -2.6875 1.484375 -3.96875q1.25 -1.078125 3.046875 -1.078125q2.0 0 3.265625 1.3125q1.265625 1.296875 1.265625 3.609375q0 1.859375 -0.5625 2.9375q-0.5625 1.0625 -1.640625 1.65625q-1.0625 0.59375 -2.328125 0.59375q-2.03125 0 -3.28125 -1.296875q-1.25 -1.3125 -1.25 -3.765625zm1.6875 0q0 1.859375 0.796875 2.796875q0.8125 0.921875 2.046875 0.921875q1.21875 0 2.03125 -0.921875q0.8125 -0.9375 0.8125 -2.84375q0 -1.796875 -0.8125 -2.71875q-0.8125 -0.921875 -2.03125 -0.921875q-1.234375 0 -2.046875 0.921875q-0.796875 0.90625 -0.796875 2.765625zm15.563232 4.84375l0 -1.21875q-0.90625 1.4375 -2.703125 1.4375q-1.15625 0 -2.125 -0.640625q-0.96875 -0.640625 -1.5 -1.78125q-0.53125 -1.140625 -0.53125 -2.625q0 -1.453125 0.484375 -2.625q0.484375 -1.1875 1.4375 -1.8125q0.96875 -0.625 2.171875 -0.625q0.875 0 1.546875 0.375q0.6875 0.359375 1.109375 0.953125l0 -4.796875l1.640625 0l0 13.359375l-1.53125 0zm-5.171875 -4.828125q0 1.859375 0.78125 2.78125q0.78125 0.921875 1.84375 0.921875q1.078125 0 1.828125 -0.875q0.75 -0.890625 0.75 -2.6875q0 -1.984375 -0.765625 -2.90625q-0.765625 -0.9375 -1.890625 -0.9375q-1.078125 0 -1.8125 0.890625q-0.734375 0.890625 -0.734375 2.8125zm15.906952 1.71875l1.6875 0.203125q-0.40625 1.484375 -1.484375 2.3125q-1.078125 0.8125 -2.765625 0.8125q-2.125 0 -3.375 -1.296875q-1.234375 -1.3125 -1.234375 -3.671875q0 -2.453125 1.25 -3.796875q1.265625 -1.34375 3.265625 -1.34375q1.9375 0 3.15625 1.328125q1.234375 1.3125 1.234375 3.703125q0 0.15625 0 0.4375l-7.21875 0q0.09375 1.59375 0.90625 2.453125q0.8125 0.84375 2.015625 0.84375q0.90625 0 1.546875 -0.46875q0.640625 -0.484375 1.015625 -1.515625zm-5.390625 -2.65625l5.40625 0q-0.109375 -1.21875 -0.625 -1.828125q-0.78125 -0.953125 -2.03125 -0.953125q-1.125 0 -1.90625 0.765625q-0.765625 0.75 -0.84375 2.015625zm9.094482 5.765625l0 -13.359375l1.640625 0l0 13.359375l-1.640625 0z" fill-rule="nonzero"/><path fill="#000000" fill-opacity="0.0" d="m448.5958 242.61942l88.1575 -8.724396" fill-rule="evenodd"/><path stroke="#000000" stroke-width="1.0" stroke-linejoin="round" stroke-linecap="butt" d="m448.5958 242.61942l82.186615 -8.133499" fill-rule="evenodd"/><path fill="#000000" stroke="#000000" stroke-width="1.0" stroke-linecap="butt" d="m530.9451 236.12961l4.3533325 -2.090622l-4.678711 -1.1967773z" fill-rule="evenodd"/><path fill="#000000" fill-opacity="0.0" d="m45.396324 593.45404l694.6772 0" fill-rule="evenodd"/><path stroke="#000000" stroke-width="1.0" stroke-linejoin="round" stroke-linecap="butt" d="m45.396324 593.45404l694.6772 0" fill-rule="evenodd"/><path fill="#000000" fill-opacity="0.0" d="m70.703415 624.874l0 -459.937" fill-rule="evenodd"/><path stroke="#000000" stroke-width="1.0" stroke-linejoin="round" stroke-linecap="butt" d="m70.703415 624.874l0 -459.937" fill-rule="evenodd"/><path fill="#000000" fill-opacity="0.0" d="m414.98425 597.5302l216.0315 0l0 42.015747l-216.0315 0z" fill-rule="evenodd"/><path fill="#000000" d="m425.71863 624.4502l0 -13.359375l1.765625 0l0 13.359375l-1.765625 0zm4.6832886 0l0 -9.671875l1.46875 0l0 1.375q1.0625 -1.59375 3.078125 -1.59375q0.875 0 1.609375 0.3125q0.734375 0.3125 1.09375 0.828125q0.375 0.5 0.515625 1.203125q0.09375 0.453125 0.09375 1.59375l0 5.953125l-1.640625 0l0 -5.890625q0 -1.0 -0.203125 -1.484375q-0.1875 -0.5 -0.671875 -0.796875q-0.484375 -0.296875 -1.140625 -0.296875q-1.046875 0 -1.8125 0.671875q-0.75 0.65625 -0.75 2.515625l0 5.28125l-1.640625 0zm16.641357 0l0 -1.21875q-0.90625 1.4375 -2.703125 1.4375q-1.15625 0 -2.125 -0.640625q-0.96875 -0.640625 -1.5 -1.78125q-0.53125 -1.140625 -0.53125 -2.625q0 -1.453125 0.484375 -2.625q0.484375 -1.1875 1.4375 -1.8125q0.96875 -0.625 2.171875 -0.625q0.875 0 1.546875 0.375q0.6875 0.359375 1.109375 0.953125l0 -4.796875l1.640625 0l0 13.359375l-1.53125 0zm-5.171875 -4.828125q0 1.859375 0.78125 2.78125q0.78125 0.921875 1.84375 0.921875q1.078125 0 1.828125 -0.875q0.75 -0.890625 0.75 -2.6875q0 -1.984375 -0.765625 -2.90625q-0.765625 -0.9375 -1.890625 -0.9375q-1.078125 0 -1.8125 0.890625q-0.734375 0.890625 -0.734375 2.8125zm15.906952 1.71875l1.6875 0.203125q-0.40625 1.484375 -1.484375 2.3125q-1.078125 0.8125 -2.765625 0.8125q-2.125 0 -3.375 -1.296875q-1.234375 -1.3125 -1.234375 -3.671875q0 -2.453125 1.25 -3.796875q1.265625 -1.34375 3.265625 -1.34375q1.9375 0 3.15625 1.328125q1.234375 1.3125 1.234375 3.703125q0 0.15625 0 0.4375l-7.21875 0q0.09375 1.59375 0.90625 2.453125q0.8125 0.84375 2.015625 0.84375q0.90625 0 1.546875 -0.46875q0.640625 -0.484375 1.015625 -1.515625zm-5.390625 -2.65625l5.40625 0q-0.109375 -1.21875 -0.625 -1.828125q-0.78125 -0.953125 -2.03125 -0.953125q-1.125 0 -1.90625 0.765625q-0.765625 0.75 -0.84375 2.015625zm9.141357 9.46875l0 -13.375l1.484375 0l0 1.25q0.53125 -0.734375 1.1875 -1.09375q0.671875 -0.375 1.625 -0.375q1.234375 0 2.171875 0.640625q0.953125 0.625 1.4375 1.796875q0.484375 1.15625 0.484375 2.546875q0 1.484375 -0.53125 2.671875q-0.53125 1.1875 -1.546875 1.828125q-1.015625 0.625 -2.140625 0.625q-0.8125 0 -1.46875 -0.34375q-0.65625 -0.34375 -1.0625 -0.875l0 4.703125l-1.640625 0zm1.484375 -8.484375q0 1.859375 0.75 2.765625q0.765625 0.890625 1.828125 0.890625q1.09375 0 1.875 -0.921875q0.78125 -0.9375 0.78125 -2.875q0 -1.84375 -0.765625 -2.765625q-0.75 -0.921875 -1.8125 -0.921875q-1.046875 0 -1.859375 0.984375q-0.796875 0.96875 -0.796875 2.84375zm15.516327 1.671875l1.6875 0.203125q-0.40625 1.484375 -1.484375 2.3125q-1.078125 0.8125 -2.765625 0.8125q-2.125 0 -3.375 -1.296875q-1.234375 -1.3125 -1.234375 -3.671875q0 -2.453125 1.25 -3.796875q1.265625 -1.34375 3.265625 -1.34375q1.9375 0 3.15625 1.328125q1.234375 1.3125 1.234375 3.703125q0 0.15625 0 0.4375l-7.21875 0q0.09375 1.59375 0.90625 2.453125q0.8125 0.84375 2.015625 0.84375q0.90625 0 1.546875 -0.46875q0.640625 -0.484375 1.015625 -1.515625zm-5.390625 -2.65625l5.40625 0q-0.109375 -1.21875 -0.625 -1.828125q-0.78125 -0.953125 -2.03125 -0.953125q-1.125 0 -1.90625 0.765625q-0.765625 0.75 -0.84375 2.015625zm9.141357 5.765625l0 -9.671875l1.46875 0l0 1.375q1.0625 -1.59375 3.078125 -1.59375q0.875 0 1.609375 0.3125q0.734375 0.3125 1.09375 0.828125q0.375 0.5 0.515625 1.203125q0.09375 0.453125 0.09375 1.59375l0 5.953125l-1.640625 0l0 -5.890625q0 -1.0 -0.203125 -1.484375q-0.1875 -0.5 -0.671875 -0.796875q-0.484375 -0.296875 -1.140625 -0.296875q-1.046875 0 -1.8125 0.671875q-0.75 0.65625 -0.75 2.515625l0 5.28125l-1.640625 0zm16.641327 0l0 -1.21875q-0.90625 1.4375 -2.703125 1.4375q-1.15625 0 -2.125 -0.640625q-0.96875 -0.640625 -1.5 -1.78125q-0.53125 -1.140625 -0.53125 -2.625q0 -1.453125 0.484375 -2.625q0.484375 -1.1875 1.4375 -1.8125q0.96875 -0.625 2.171875 -0.625q0.875 0 1.546875 0.375q0.6875 0.359375 1.109375 0.953125l0 -4.796875l1.640625 0l0 13.359375l-1.53125 0zm-5.171875 -4.828125q0 1.859375 0.78125 2.78125q0.78125 0.921875 1.84375 0.921875q1.078125 0 1.828125 -0.875q0.75 -0.890625 0.75 -2.6875q0 -1.984375 -0.765625 -2.90625q-0.765625 -0.9375 -1.890625 -0.9375q-1.078125 0 -1.8125 0.890625q-0.734375 0.890625 -0.734375 2.8125zm15.906982 1.71875l1.6875 0.203125q-0.40625 1.484375 -1.484375 2.3125q-1.078125 0.8125 -2.765625 0.8125q-2.125 0 -3.375 -1.296875q-1.234375 -1.3125 -1.234375 -3.671875q0 -2.453125 1.25 -3.796875q1.265625 -1.34375 3.265625 -1.34375q1.9375 0 3.15625 1.328125q1.234375 1.3125 1.234375 3.703125q0 0.15625 0 0.4375l-7.21875 0q0.09375 1.59375 0.90625 2.453125q0.8125 0.84375 2.015625 0.84375q0.90625 0 1.546875 -0.46875q0.640625 -0.484375 1.015625 -1.515625zm-5.390625 -2.65625l5.40625 0q-0.109375 -1.21875 -0.625 -1.828125q-0.78125 -0.953125 -2.03125 -0.953125q-1.125 0 -1.90625 0.765625q-0.765625 0.75 -0.84375 2.015625zm9.141327 5.765625l0 -9.671875l1.46875 0l0 1.375q1.0625 -1.59375 3.078125 -1.59375q0.875 0 1.609375 0.3125q0.734375 0.3125 1.09375 0.828125q0.375 0.5 0.515625 1.203125q0.09375 0.453125 0.09375 1.59375l0 5.953125l-1.640625 0l0 -5.890625q0 -1.0 -0.203125 -1.484375q-0.1875 -0.5 -0.671875 -0.796875q-0.484375 -0.296875 -1.140625 -0.296875q-1.046875 0 -1.8125 0.671875q-0.75 0.65625 -0.75 2.515625l0 5.28125l-1.640625 0zm13.953857 -1.46875l0.234375 1.453125q-0.6875 0.140625 -1.234375 0.140625q-0.890625 0 -1.390625 -0.28125q-0.484375 -0.28125 -0.6875 -0.734375q-0.203125 -0.46875 -0.203125 -1.9375l0 -5.578125l-1.203125 0l0 -1.265625l1.203125 0l0 -2.390625l1.625 -0.984375l0 3.375l1.65625 0l0 1.265625l-1.65625 0l0 5.671875q0 0.6875 0.078125 0.890625q0.09375 0.203125 0.28125 0.328125q0.203125 0.109375 0.578125 0.109375q0.265625 0 0.71875 -0.0625zm9.475952 1.46875l-3.6875 -9.671875l1.734375 0l2.078125 5.796875q0.328125 0.9375 0.625 1.9375q0.203125 -0.765625 0.609375 -1.828125l2.140625 -5.90625l1.6875 0l-3.65625 9.671875l-1.53125 0zm12.953125 -1.1875q-0.921875 0.765625 -1.765625 1.09375q-0.828125 0.3125 -1.796875 0.3125q-1.59375 0 -2.453125 -0.78125q-0.859375 -0.78125 -0.859375 -1.984375q0 -0.71875 0.328125 -1.296875q0.328125 -0.59375 0.84375 -0.9375q0.53125 -0.359375 1.1875 -0.546875q0.46875 -0.125 1.453125 -0.25q1.984375 -0.234375 2.921875 -0.5625q0.015625 -0.34375 0.015625 -0.421875q0 -1.0 -0.46875 -1.421875q-0.625 -0.546875 -1.875 -0.546875q-1.15625 0 -1.703125 0.40625q-0.546875 0.40625 -0.8125 1.421875l-1.609375 -0.21875q0.21875 -1.015625 0.71875 -1.640625q0.5 -0.640625 1.453125 -0.984375q0.953125 -0.34375 2.1875 -0.34375q1.25 0 2.015625 0.296875q0.78125 0.28125 1.140625 0.734375q0.375 0.4375 0.515625 1.109375q0.078125 0.421875 0.078125 1.515625l0 2.1875q0 2.28125 0.109375 2.890625q0.109375 0.59375 0.40625 1.15625l-1.703125 0q-0.265625 -0.515625 -0.328125 -1.1875zm-0.140625 -3.671875q-0.890625 0.375 -2.671875 0.625q-1.015625 0.140625 -1.4375 0.328125q-0.421875 0.1875 -0.65625 0.53125q-0.21875 0.34375 -0.21875 0.78125q0 0.65625 0.5 1.09375q0.5 0.4375 1.453125 0.4375q0.9375 0 1.671875 -0.40625q0.75 -0.421875 1.09375 -1.140625q0.265625 -0.5625 0.265625 -1.640625l0 -0.609375zm4.1882324 4.859375l0 -9.671875l1.46875 0l0 1.46875q0.5625 -1.03125 1.03125 -1.359375q0.484375 -0.328125 1.0625 -0.328125q0.828125 0 1.6875 0.53125l-0.5625 1.515625q-0.609375 -0.359375 -1.203125 -0.359375q-0.546875 0 -0.96875 0.328125q-0.421875 0.328125 -0.609375 0.890625q-0.28125 0.875 -0.28125 1.921875l0 5.0625l-1.625 0zm6.2283325 -11.46875l0 -1.890625l1.640625 0l0 1.890625l-1.640625 0zm0 11.46875l0 -9.671875l1.640625 0l0 9.671875l-1.640625 0zm10.457275 -1.1875q-0.921875 0.765625 -1.765625 1.09375q-0.828125 0.3125 -1.796875 0.3125q-1.59375 0 -2.453125 -0.78125q-0.859375 -0.78125 -0.859375 -1.984375q0 -0.71875 0.328125 -1.296875q0.328125 -0.59375 0.84375 -0.9375q0.53125 -0.359375 1.1875 -0.546875q0.46875 -0.125 1.453125 -0.25q1.984375 -0.234375 2.921875 -0.5625q0.015625 -0.34375 0.015625 -0.421875q0 -1.0 -0.46875 -1.421875q-0.625 -0.546875 -1.875 -0.546875q-1.15625 0 -1.703125 0.40625q-0.546875 0.40625 -0.8125 1.421875l-1.609375 -0.21875q0.21875 -1.015625 0.71875 -1.640625q0.5 -0.640625 1.453125 -0.984375q0.953125 -0.34375 2.1875 -0.34375q1.25 0 2.015625 0.296875q0.78125 0.28125 1.140625 0.734375q0.375 0.4375 0.515625 1.109375q0.078125 0.421875 0.078125 1.515625l0 2.1875q0 2.28125 0.109375 2.890625q0.109375 0.59375 0.40625 1.15625l-1.703125 0q-0.265625 -0.515625 -0.328125 -1.1875zm-0.140625 -3.671875q-0.890625 0.375 -2.671875 0.625q-1.015625 0.140625 -1.4375 0.328125q-0.421875 0.1875 -0.65625 0.53125q-0.21875 0.34375 -0.21875 0.78125q0 0.65625 0.5 1.09375q0.5 0.4375 1.453125 0.4375q0.9375 0 1.671875 -0.40625q0.75 -0.421875 1.09375 -1.140625q0.265625 -0.5625 0.265625 -1.640625l0 -0.609375zm5.7038574 4.859375l-1.515625 0l0 -13.359375l1.640625 0l0 4.765625q1.046875 -1.296875 2.65625 -1.296875q0.890625 0 1.6875 0.359375q0.796875 0.359375 1.3125 1.015625q0.515625 0.640625 0.796875 1.5625q0.296875 0.921875 0.296875 1.96875q0 2.484375 -1.234375 3.84375q-1.21875 1.359375 -2.953125 1.359375q-1.703125 0 -2.6875 -1.4375l0 1.21875zm-0.015625 -4.90625q0 1.734375 0.484375 2.515625q0.765625 1.265625 2.09375 1.265625q1.078125 0 1.859375 -0.9375q0.78125 -0.9375 0.78125 -2.78125q0 -1.890625 -0.75 -2.796875q-0.75 -0.90625 -1.828125 -0.90625q-1.0625 0 -1.859375 0.9375q-0.78125 0.9375 -0.78125 2.703125zm8.844482 4.90625l0 -13.359375l1.640625 0l0 13.359375l-1.640625 0zm10.816711 -3.109375l1.6875 0.203125q-0.40625 1.484375 -1.484375 2.3125q-1.078125 0.8125 -2.765625 0.8125q-2.125 0 -3.375 -1.296875q-1.234375 -1.3125 -1.234375 -3.671875q0 -2.453125 1.25 -3.796875q1.265625 -1.34375 3.265625 -1.34375q1.9375 0 3.15625 1.328125q1.234375 1.3125 1.234375 3.703125q0 0.15625 0 0.4375l-7.21875 0q0.09375 1.59375 0.90625 2.453125q0.8125 0.84375 2.015625 0.84375q0.90625 0 1.546875 -0.46875q0.640625 -0.484375 1.015625 -1.515625zm-5.390625 -2.65625l5.40625 0q-0.109375 -1.21875 -0.625 -1.828125q-0.78125 -0.953125 -2.03125 -0.953125q-1.125 0 -1.90625 0.765625q-0.765625 0.75 -0.84375 2.015625z" fill-rule="nonzero"/><path fill="#000000" fill-opacity="0.0" d="m27.939632 352.57922l0 -183.27559l42.01575 0l0 183.27559z" fill-rule="evenodd"/><path fill="#000000" d="m54.85963 342.14172l-13.359375 0l0 -4.609375q0 -1.546875 0.203125 -2.375q0.25 -1.140625 0.953125 -1.953125q0.890625 -1.0625 2.28125 -1.578125q1.390625 -0.53125 3.171875 -0.53125q1.515625 0 2.703125 0.359375q1.171875 0.359375 1.9375 0.921875q0.765625 0.546875 1.21875 1.203125q0.4375 0.65625 0.671875 1.59375q0.21875 0.9375 0.21875 2.140625l0 4.828125zm-1.578125 -1.765625l0 -2.859375q0 -1.3125 -0.234375 -2.0625q-0.25 -0.75 -0.703125 -1.203125q-0.625 -0.625 -1.6875 -0.96875q-1.0625 -0.359375 -2.578125 -0.359375q-2.09375 0 -3.21875 0.6875q-1.125 0.6875 -1.5 1.671875q-0.28125 0.703125 -0.28125 2.28125l0 2.8125l10.203125 0zm-1.53125 -18.129211l0.203125 -1.6875q1.484375 0.40625 2.3125 1.484375q0.8125 1.078125 0.8125 2.765625q0 2.125 -1.296875 3.375q-1.3125 1.234375 -3.671875 1.234375q-2.453125 0 -3.796875 -1.25q-1.34375 -1.265625 -1.34375 -3.265625q0 -1.9375 1.328125 -3.15625q1.3125 -1.234375 3.703125 -1.234375q0.15625 0 0.4375 0l0 7.21875q1.59375 -0.09375 2.453125 -0.90625q0.84375 -0.8125 0.84375 -2.015625q0 -0.90625 -0.46875 -1.546875q-0.484375 -0.640625 -1.515625 -1.015625zm-2.65625 5.390625l0 -5.40625q-1.21875 0.109375 -1.828125 0.625q-0.953125 0.78125 -0.953125 2.03125q0 1.125 0.765625 1.90625q0.75 0.765625 2.015625 0.84375zm9.46875 -9.141327l-13.375 0l0 -1.484375l1.25 0q-0.734375 -0.53125 -1.09375 -1.1875q-0.375 -0.671875 -0.375 -1.625q0 -1.234375 0.640625 -2.171875q0.625 -0.953125 1.796875 -1.4375q1.15625 -0.484375 2.546875 -0.484375q1.484375 0 2.671875 0.53125q1.1875 0.53125 1.828125 1.546875q0.625 1.015625 0.625 2.140625q0 0.8125 -0.34375 1.46875q-0.34375 0.65625 -0.875 1.0625l4.703125 0l0 1.640625zm-8.484375 -1.484375q1.859375 0 2.765625 -0.75q0.890625 -0.765625 0.890625 -1.828125q0 -1.09375 -0.921875 -1.875q-0.9375 -0.78125 -2.875 -0.78125q-1.84375 0 -2.765625 0.765625q-0.921875 0.75 -0.921875 1.8125q0 1.046875 0.984375 1.859375q0.96875 0.796875 2.84375 0.796875zm1.671875 -15.516357l0.203125 -1.6875q1.484375 0.40625 2.3125 1.484375q0.8125 1.078125 0.8125 2.765625q0 2.125 -1.296875 3.375q-1.3125 1.234375 -3.671875 1.234375q-2.453125 0 -3.796875 -1.25q-1.34375 -1.265625 -1.34375 -3.265625q0 -1.9375 1.328125 -3.15625q1.3125 -1.234375 3.703125 -1.234375q0.15625 0 0.4375 0l0 7.21875q1.59375 -0.09375 2.453125 -0.90625q0.84375 -0.8125 0.84375 -2.015625q0 -0.90625 -0.46875 -1.546875q-0.484375 -0.640625 -1.515625 -1.015625zm-2.65625 5.390625l0 -5.40625q-1.21875 0.109375 -1.828125 0.625q-0.953125 0.78125 -0.953125 2.03125q0 1.125 0.765625 1.90625q0.75 0.765625 2.015625 0.84375zm5.765625 -9.141327l-9.671875 0l0 -1.46875l1.375 0q-1.59375 -1.0625 -1.59375 -3.078125q0 -0.875 0.3125 -1.609375q0.3125 -0.734375 0.828125 -1.09375q0.5 -0.375 1.203125 -0.515625q0.453125 -0.09375 1.59375 -0.09375l5.953125 0l0 1.640625l-5.890625 0q-1.0 0 -1.484375 0.203125q-0.5 0.1875 -0.796875 0.671875q-0.296875 0.484375 -0.296875 1.140625q0 1.046875 0.671875 1.8125q0.65625 0.75 2.515625 0.75l5.28125 0l0 1.640625zm0 -16.641357l-1.21875 0q1.4375 0.90625 1.4375 2.703125q0 1.15625 -0.640625 2.125q-0.640625 0.96875 -1.78125 1.5q-1.140625 0.53125 -2.625 0.53125q-1.453125 0 -2.625 -0.484375q-1.1875 -0.484375 -1.8125 -1.4375q-0.625 -0.96875 -0.625 -2.171875q0 -0.875 0.375 -1.546875q0.359375 -0.6875 0.953125 -1.109375l-4.796875 0l0 -1.640625l13.359375 0l0 1.53125zm-4.828125 5.171875q1.859375 0 2.78125 -0.78125q0.921875 -0.78125 0.921875 -1.84375q0 -1.078125 -0.875 -1.828125q-0.890625 -0.75 -2.6875 -0.75q-1.984375 0 -2.90625 0.765625q-0.9375 0.765625 -0.9375 1.890625q0 1.078125 0.890625 1.8125q0.890625 0.734375 2.8125 0.734375zm1.71875 -15.906952l0.203125 -1.6875q1.484375 0.40625 2.3125 1.484375q0.8125 1.078125 0.8125 2.765625q0 2.125 -1.296875 3.375q-1.3125 1.234375 -3.671875 1.234375q-2.453125 0 -3.796875 -1.25q-1.34375 -1.265625 -1.34375 -3.265625q0 -1.9375 1.328125 -3.15625q1.3125 -1.234375 3.703125 -1.234375q0.15625 0 0.4375 0l0 7.21875q1.59375 -0.09375 2.453125 -0.90625q0.84375 -0.8125 0.84375 -2.015625q0 -0.90625 -0.46875 -1.546875q-0.484375 -0.640625 -1.515625 -1.015625zm-2.65625 5.390625l0 -5.40625q-1.21875 0.109375 -1.828125 0.625q-0.953125 0.78125 -0.953125 2.03125q0 1.125 0.765625 1.90625q0.75 0.765625 2.015625 0.84375zm5.765625 -9.141357l-9.671875 0l0 -1.46875l1.375 0q-1.59375 -1.0625 -1.59375 -3.078125q0 -0.875 0.3125 -1.609375q0.3125 -0.734375 0.828125 -1.09375q0.5 -0.375 1.203125 -0.515625q0.453125 -0.09375 1.59375 -0.09375l5.953125 0l0 1.640625l-5.890625 0q-1.0 0 -1.484375 0.203125q-0.5 0.1875 -0.796875 0.671875q-0.296875 0.484375 -0.296875 1.140625q0 1.046875 0.671875 1.8125q0.65625 0.75 2.515625 0.75l5.28125 0l0 1.640625zm-1.46875 -13.953827l1.453125 -0.234375q0.140625 0.6875 0.140625 1.234375q0 0.890625 -0.28125 1.390625q-0.28125 0.484375 -0.734375 0.6875q-0.46875 0.203125 -1.9375 0.203125l-5.578125 0l0 1.203125l-1.265625 0l0 -1.203125l-2.390625 0l-0.984375 -1.625l3.375 0l0 -1.65625l1.265625 0l0 1.65625l5.671875 0q0.6875 0 0.890625 -0.078125q0.203125 -0.09375 0.328125 -0.28125q0.109375 -0.203125 0.109375 -0.578125q0 -0.265625 -0.0625 -0.71875zm1.46875 -9.475983l-9.671875 3.6875l0 -1.734375l5.796875 -2.078125q0.9375 -0.328125 1.9375 -0.625q-0.765625 -0.203125 -1.828125 -0.609375l-5.90625 -2.140625l0 -1.6875l9.671875 3.65625l0 1.53125zm-1.1875 -12.953125q0.765625 0.921875 1.09375 1.765625q0.3125 0.828125 0.3125 1.796875q0 1.59375 -0.78125 2.453125q-0.78125 0.859375 -1.984375 0.859375q-0.71875 0 -1.296875 -0.328125q-0.59375 -0.328125 -0.9375 -0.84375q-0.359375 -0.53125 -0.546875 -1.1875q-0.125 -0.46875 -0.25 -1.453125q-0.234375 -1.984375 -0.5625 -2.921875q-0.34375 -0.015625 -0.421875 -0.015625q-1.0 0 -1.421875 0.46875q-0.546875 0.625 -0.546875 1.875q0 1.15625 0.40625 1.703125q0.40625 0.546875 1.421875 0.8125l-0.21875 1.609375q-1.015625 -0.21875 -1.640625 -0.71875q-0.640625 -0.5 -0.984375 -1.453125q-0.34375 -0.953125 -0.34375 -2.1875q0 -1.25 0.296875 -2.015625q0.28125 -0.78125 0.734375 -1.140625q0.4375 -0.375 1.109375 -0.515625q0.421875 -0.078125 1.515625 -0.078125l2.1875 0q2.28125 0 2.890625 -0.109375q0.59375 -0.109375 1.15625 -0.40625l0 1.703125q-0.515625 0.265625 -1.1875 0.328125zm-3.671875 0.140625q0.375 0.890625 0.625 2.671875q0.140625 1.015625 0.328125 1.4375q0.1875 0.421875 0.53125 0.65625q0.34375 0.21875 0.78125 0.21875q0.65625 0 1.09375 -0.5q0.4375 -0.5 0.4375 -1.453125q0 -0.9375 -0.40625 -1.671875q-0.421875 -0.75 -1.140625 -1.09375q-0.5625 -0.265625 -1.640625 -0.265625l-0.609375 0zm4.859375 -4.188217l-9.671875 0l0 -1.46875l1.46875 0q-1.03125 -0.5625 -1.359375 -1.03125q-0.328125 -0.484375 -0.328125 -1.0625q0 -0.828125 0.53125 -1.6875l1.515625 0.5625q-0.359375 0.609375 -0.359375 1.203125q0 0.546875 0.328125 0.96875q0.328125 0.421875 0.890625 0.609375q0.875 0.28125 1.921875 0.28125l5.0625 0l0 1.625zm-11.46875 -6.228302l-1.890625 0l0 -1.640625l1.890625 0l0 1.640625zm11.46875 0l-9.671875 0l0 -1.640625l9.671875 0l0 1.640625zm-1.1875 -10.457321q0.765625 0.921875 1.09375 1.765625q0.3125 0.828125 0.3125 1.796875q0 1.59375 -0.78125 2.453125q-0.78125 0.859375 -1.984375 0.859375q-0.71875 0 -1.296875 -0.328125q-0.59375 -0.328125 -0.9375 -0.84375q-0.359375 -0.53125 -0.546875 -1.1875q-0.125 -0.46875 -0.25 -1.453125q-0.234375 -1.984375 -0.5625 -2.921875q-0.34375 -0.015625 -0.421875 -0.015625q-1.0 0 -1.421875 0.46875q-0.546875 0.625 -0.546875 1.875q0 1.15625 0.40625 1.703125q0.40625 0.546875 1.421875 0.8125l-0.21875 1.609375q-1.015625 -0.21875 -1.640625 -0.71875q-0.640625 -0.5 -0.984375 -1.453125q-0.34375 -0.953125 -0.34375 -2.1875q0 -1.25 0.296875 -2.015625q0.28125 -0.78125 0.734375 -1.140625q0.4375 -0.375 1.109375 -0.515625q0.421875 -0.078125 1.515625 -0.078125l2.1875 0q2.28125 0 2.890625 -0.109375q0.59375 -0.109375 1.15625 -0.40625l0 1.703125q-0.515625 0.265625 -1.1875 0.328125zm-3.671875 0.140625q0.375 0.890625 0.625 2.671875q0.140625 1.015625 0.328125 1.4375q0.1875 0.421875 0.53125 0.65625q0.34375 0.21875 0.78125 0.21875q0.65625 0 1.09375 -0.5q0.4375 -0.5 0.4375 -1.453125q0 -0.9375 -0.40625 -1.671875q-0.421875 -0.75 -1.140625 -1.09375q-0.5625 -0.265625 -1.640625 -0.265625l-0.609375 0zm4.859375 -5.703842l0 1.515625l-13.359375 0l0 -1.640625l4.765625 0q-1.296875 -1.046875 -1.296875 -2.65625q0 -0.890625 0.359375 -1.6875q0.359375 -0.796875 1.015625 -1.3125q0.640625 -0.515625 1.5625 -0.796875q0.921875 -0.296875 1.96875 -0.296875q2.484375 0 3.84375 1.234375q1.359375 1.21875 1.359375 2.953125q0 1.703125 -1.4375 2.6875l1.21875 0zm-4.90625 0.015625q1.734375 0 2.515625 -0.484375q1.265625 -0.765625 1.265625 -2.09375q0 -1.078125 -0.9375 -1.859375q-0.9375 -0.78125 -2.78125 -0.78125q-1.890625 0 -2.796875 0.75q-0.90625 0.75 -0.90625 1.828125q0 1.0625 0.9375 1.859375q0.9375 0.78125 2.703125 0.78125zm4.90625 -8.844467l-13.359375 0l0 -1.640625l13.359375 0l0 1.640625zm-3.109375 -10.816696l0.203125 -1.6875q1.484375 0.40625 2.3125 1.484375q0.8125 1.078125 0.8125 2.765625q0 2.125 -1.296875 3.375q-1.3125 1.234375 -3.671875 1.234375q-2.453125 0 -3.796875 -1.25q-1.34375 -1.265625 -1.34375 -3.265625q0 -1.9375 1.328125 -3.15625q1.3125 -1.234375 3.703125 -1.234375q0.15625 0 0.4375 0l0 7.21875q1.59375 -0.09375 2.453125 -0.90625q0.84375 -0.8125 0.84375 -2.015625q0 -0.90625 -0.46875 -1.546875q-0.484375 -0.640625 -1.515625 -1.015625zm-2.65625 5.390625l0 -5.40625q-1.21875 0.109375 -1.828125 0.625q-0.953125 0.78125 -0.953125 2.03125q0 1.125 0.765625 1.90625q0.75 0.765625 2.015625 0.84375z" fill-rule="nonzero"/></g></svg>